<svg viewBox="0 0 1200 300" xmlns="http://www.w3.org/2000/svg">
  <defs>
    <!-- Gradient definitions for depth and sophistication -->
    <linearGradient id="primaryGrad" x1="0%" y1="0%" x2="100%" y2="100%">
      <stop offset="0%" style="stop-color:#2563eb;stop-opacity:0.1" />
      <stop offset="50%" style="stop-color:#7c3aed;stop-opacity:0.15" />
      <stop offset="100%" style="stop-color:#0891b2;stop-opacity:0.1" />
    </linearGradient>
    
    <linearGradient id="accentGrad" x1="0%" y1="0%" x2="100%" y2="0%">
      <stop offset="0%" style="stop-color:#6366f1;stop-opacity:0.2" />
      <stop offset="100%" style="stop-color:#8b5cf6;stop-opacity:0.05" />
    </linearGradient>
    
    <radialGradient id="nodeGrad" cx="50%" cy="50%" r="50%">
      <stop offset="0%" style="stop-color:#4f46e5;stop-opacity:0.3" />
      <stop offset="100%" style="stop-color:#4f46e5;stop-opacity:0.05" />
    </radialGradient>
    
    <!-- Subtle noise pattern for texture -->
    <filter id="noise">
      <feTurbulence baseFrequency="0.9" numOctaves="3" result="noise"/>
      <feColorMatrix in="noise" type="saturate" values="0"/>
      <feComponentTransfer>
        <feFuncA type="discrete" tableValues="0 0.02 0.04 0.06"/>
      </feComponentTransfer>
      <feComposite operator="over" in2="SourceGraphic"/>
    </filter>
  </defs>
  
  <!-- Background with subtle gradient -->
  <rect width="1200" height="300" fill="url(#primaryGrad)"/>
  
  <!-- Abstract flowing paths representing data flow and methodology -->
  <path d="M-50 150 Q200 80 400 120 T800 100 Q1000 90 1250 130" 
        stroke="#4338ca" stroke-width="1.5" fill="none" opacity="0.3"/>
  
  <path d="M-30 180 Q180 220 380 180 T780 200 Q980 190 1230 170" 
        stroke="#7c3aed" stroke-width="1.2" fill="none" opacity="0.25"/>
  
  <path d="M-20 120 Q220 60 420 90 T820 70 Q1020 80 1270 100" 
        stroke="#0891b2" stroke-width="1" fill="none" opacity="0.2"/>
  
  <!-- Interconnected node-like elements suggesting network/workflow -->
  <g opacity="0.4">
    <!-- Connection lines -->
    <line x1="150" y1="100" x2="280" y2="140" stroke="#6366f1" stroke-width="0.8" opacity="0.3"/>
    <line x1="280" y1="140" x2="450" y2="110" stroke="#6366f1" stroke-width="0.8" opacity="0.3"/>
    <line x1="450" y1="110" x2="600" y2="160" stroke="#6366f1" stroke-width="0.8" opacity="0.3"/>
    <line x1="600" y1="160" x2="780" y2="120" stroke="#6366f1" stroke-width="0.8" opacity="0.3"/>
    <line x1="780" y1="120" x2="950" y2="180" stroke="#6366f1" stroke-width="0.8" opacity="0.3"/>
    
    <!-- Branching connections -->
    <line x1="280" y1="140" x2="320" y2="200" stroke="#8b5cf6" stroke-width="0.6" opacity="0.25"/>
    <line x1="450" y1="110" x2="500" y2="60" stroke="#8b5cf6" stroke-width="0.6" opacity="0.25"/>
    <line x1="600" y1="160" x2="580" y2="220" stroke="#8b5cf6" stroke-width="0.6" opacity="0.25"/>
    <line x1="780" y1="120" x2="820" y2="80" stroke="#8b5cf6" stroke-width="0.6" opacity="0.25"/>
  </g>
  
  <!-- Node points -->
  <g opacity="0.6">
    <circle cx="150" cy="100" r="4" fill="url(#nodeGrad)"/>
    <circle cx="280" cy="140" r="5" fill="url(#nodeGrad)"/>
    <circle cx="450" cy="110" r="4.5" fill="url(#nodeGrad)"/>
    <circle cx="600" cy="160" r="5.5" fill="url(#nodeGrad)"/>
    <circle cx="780" cy="120" r="4" fill="url(#nodeGrad)"/>
    <circle cx="950" cy="180" r="5" fill="url(#nodeGrad)"/>
    
    <!-- Secondary nodes -->
    <circle cx="320" cy="200" r="3" fill="#8b5cf6" opacity="0.4"/>
    <circle cx="500" cy="60" r="3.5" fill="#8b5cf6" opacity="0.4"/>
    <circle cx="580" cy="220" r="3" fill="#8b5cf6" opacity="0.4"/>
    <circle cx="820" cy="80" r="3.5" fill="#8b5cf6" opacity="0.4"/>
  </g>
  
  <!-- Abstract geometric shapes suggesting data structures -->
  <g opacity="0.15">
    <polygon points="100,50 130,70 120,100 90,90" fill="#4338ca"/>
    <polygon points="550,40 590,30 600,70 560,80" fill="#7c3aed"/>
    <polygon points="850,220 890,210 900,250 860,260" fill="#0891b2"/>
    <polygon points="1050,60 1080,50 1090,90 1060,100" fill="#6366f1"/>
  </g>
  
  <!-- Flowing organic shapes in background -->
  <g opacity="0.08">
    <path d="M200 250 Q400 200 600 240 Q800 280 1000 240 Q1100 220 1200 250 L1200 300 L200 300 Z" 
          fill="url(#accentGrad)"/>
    <path d="M0 50 Q200 20 400 60 Q600 100 800 60 Q1000 20 1200 50 L1200 0 L0 0 Z" 
          fill="url(#accentGrad)"/>
  </g>
  
  <!-- Subtle texture overlay -->
  <rect width="1200" height="300" fill="white" opacity="0.02" filter="url(#noise)"/>
</svg>